<svg xmlns="http://www.w3.org/2000/svg" width="48.607" height="44.035" viewBox="0 0 48.607 44.035">
  <g id="Group_4009" data-name="Group 4009" transform="translate(-50.201 -175.578)">
    <path id="Icon_ionic-ios-heart" data-name="Icon ionic-ios-heart" d="M38.9,3.938h-.117a13.508,13.508,0,0,0-11.1,5.725,13.508,13.508,0,0,0-11.1-5.725h-.117C9.229,4,3.375,9.541,3.375,16.378c0,4.073,1.893,9.853,5.585,14.609,7.034,9.06,18.718,16.987,18.718,16.987S39.363,40.047,46.4,30.986c3.692-4.756,5.585-10.535,5.585-14.609C51.982,9.541,46.128,4,38.9,3.938Z" transform="translate(46.826 171.641)" fill="#151719"/>
    <path id="Icon_ionic-ios-heart-2" data-name="Icon ionic-ios-heart" d="M28.656,3.937h-.083A9.625,9.625,0,0,0,20.672,8a9.625,9.625,0,0,0-7.9-4.058h-.083c-5.148.047-9.314,3.972-9.314,8.818A18.263,18.263,0,0,0,7.35,23.11c5.006,6.422,13.322,12.041,13.322,12.041s8.316-5.618,13.322-12.041A18.263,18.263,0,0,0,37.97,12.755C37.97,7.909,33.8,3.984,28.656,3.937Z" transform="translate(53.493 178.151)" fill="#28292e"/>
    <path id="Icon_ionic-ios-heart-3" data-name="Icon ionic-ios-heart" d="M19.932,3.938h-.054A6.369,6.369,0,0,0,14.7,6.509,6.369,6.369,0,0,0,9.529,3.938H9.475a5.889,5.889,0,0,0-6.1,5.588,11.352,11.352,0,0,0,2.6,6.562,44.2,44.2,0,0,0,8.725,7.63,44.2,44.2,0,0,0,8.725-7.63,11.352,11.352,0,0,0,2.6-6.562A5.889,5.889,0,0,0,19.932,3.938Z" transform="translate(59.438 183.957)" fill="#45474b"/>
  </g>
</svg>
