<svg xmlns="http://www.w3.org/2000/svg" xmlns:xlink="http://www.w3.org/1999/xlink" width="210.654" height="40.698" viewBox="0 0 210.654 40.698">
  <defs>
    <linearGradient id="linear-gradient" x1="1" y1="0.088" x2="0.08" y2="0.63" gradientUnits="objectBoundingBox">
      <stop offset="0" stop-color="#ed1e1e"/>
      <stop offset="1" stop-color="#f63c3c"/>
    </linearGradient>
  </defs>
  <g id="Group_3748" data-name="Group 3748" transform="translate(-66.245 -307.942)">
    <g id="Group_2454" data-name="Group 2454" transform="translate(70.749 312.442)" opacity="0.85">
      <g id="Conqur" transform="translate(8.02 7.135)" style="isolation: isolate">
        <g id="Group_2451" data-name="Group 2451" style="isolation: isolate">
          <path id="Path_1987" data-name="Path 1987" d="M100.278,240.913h8.252a11.052,11.052,0,0,1-1.368,4.84,8.761,8.761,0,0,1-3.058,3.107,13.369,13.369,0,0,1-4.371,1.639,27.165,27.165,0,0,1-5.262.487,26.617,26.617,0,0,1-5.478-.538,12.962,12.962,0,0,1-4.494-1.81,8.77,8.77,0,0,1-3.035-3.44,11.912,11.912,0,0,1-1.1-5.413v-1.673a11.854,11.854,0,0,1,1.1-5.4A8.771,8.771,0,0,1,84.5,229.28a13.074,13.074,0,0,1,4.494-1.818,26.186,26.186,0,0,1,5.478-.546,26.677,26.677,0,0,1,5.262.5,13.517,13.517,0,0,1,4.371,1.648,8.785,8.785,0,0,1,3.058,3.1,10.989,10.989,0,0,1,1.368,4.831h-8.252a3.378,3.378,0,0,0-1.213-1.725,4.955,4.955,0,0,0-2.029-.837,13.944,13.944,0,0,0-2.566-.221,12.567,12.567,0,0,0-3.035.341,4.056,4.056,0,0,0-2.19,1.306,4.28,4.28,0,0,0-.814,2.826v.563a4.248,4.248,0,0,0,.814,2.809,4.1,4.1,0,0,0,2.19,1.315,12.3,12.3,0,0,0,3.035.35,13.405,13.405,0,0,0,2.566-.23,5.115,5.115,0,0,0,2.029-.837,3.33,3.33,0,0,0,1.213-1.737Z" transform="translate(-80.365 -226.914)" fill="#ff2929"/>
          <path id="Path_1988" data-name="Path 1988" d="M135.337,227.452a12.873,12.873,0,0,1,4.487,1.809,8.787,8.787,0,0,1,3.026,3.441,11.908,11.908,0,0,1,1.1,5.412v1.673a11.858,11.858,0,0,1-1.1,5.4,8.864,8.864,0,0,1-3.026,3.44,12.784,12.784,0,0,1-4.487,1.819,28.216,28.216,0,0,1-10.963,0,12.785,12.785,0,0,1-4.495-1.819,8.866,8.866,0,0,1-3.027-3.44,11.858,11.858,0,0,1-1.1-5.4v-1.673a11.908,11.908,0,0,1,1.1-5.412,8.789,8.789,0,0,1,3.027-3.441,12.872,12.872,0,0,1,4.5-1.809A28.216,28.216,0,0,1,135.337,227.452Zm.56,11.772v-.564a4.249,4.249,0,0,0-.814-2.809,4.1,4.1,0,0,0-2.19-1.315,13.411,13.411,0,0,0-6.085,0,4.1,4.1,0,0,0-2.19,1.315,4.249,4.249,0,0,0-.815,2.809v.564a4.276,4.276,0,0,0,.815,2.825,4.1,4.1,0,0,0,2.19,1.315,13.411,13.411,0,0,0,6.085,0,4.1,4.1,0,0,0,2.19-1.315,4.276,4.276,0,0,0,.817-2.826Z" transform="translate(-84.82 -226.914)" fill="#ff2929"/>
          <path id="Path_1989" data-name="Path 1989" d="M171.778,227.558h8.066V250.5h-9.066l-11.093-14.017V250.5h-8.052V227.558h11.079l9.066,12.156Z" transform="translate(-89.336 -226.995)" fill="#ff2929"/>
          <path id="Path_1990" data-name="Path 1990" d="M216.288,239.806a11.778,11.778,0,0,1-1.122,5.446,8.921,8.921,0,0,1-3.088,3.449l4.211,6.777h-8.574l-2.6-4.609q-1.429.138-2.934.136a26.608,26.608,0,0,1-5.478-.538,12.961,12.961,0,0,1-4.494-1.809,8.783,8.783,0,0,1-3.035-3.432,11.9,11.9,0,0,1-1.1-5.42v-1.673a11.858,11.858,0,0,1,1.1-5.4,8.783,8.783,0,0,1,3.035-3.432,13.092,13.092,0,0,1,4.494-1.818,27.734,27.734,0,0,1,10.955,0,13.089,13.089,0,0,1,4.5,1.818,8.783,8.783,0,0,1,3.035,3.432,11.858,11.858,0,0,1,1.1,5.4Zm-14.106,3.927a12.345,12.345,0,0,0,3.035-.35,4.1,4.1,0,0,0,2.189-1.315,4.244,4.244,0,0,0,.815-2.809V238.7a4.271,4.271,0,0,0-.815-2.825,4.047,4.047,0,0,0-2.189-1.306,13.681,13.681,0,0,0-6.078,0,4.079,4.079,0,0,0-2.189,1.306,4.247,4.247,0,0,0-.823,2.825v.564a4.221,4.221,0,0,0,.823,2.809,4.134,4.134,0,0,0,2.189,1.315,12.319,12.319,0,0,0,3.044.345Z" transform="translate(-93.924 -226.916)" fill="#ff2929"/>
          <path id="Path_1991" data-name="Path 1991" d="M243.978,227.558h8.067v12.327a11.854,11.854,0,0,1-1.1,5.4,8.777,8.777,0,0,1-3.035,3.432,12.963,12.963,0,0,1-4.494,1.81,28.177,28.177,0,0,1-10.955,0,12.967,12.967,0,0,1-4.495-1.81,8.777,8.777,0,0,1-3.035-3.432,11.854,11.854,0,0,1-1.1-5.4V227.558h8.052v11.763a4.251,4.251,0,0,0,.823,2.826,4.1,4.1,0,0,0,2.19,1.306,13.711,13.711,0,0,0,6.077,0,4.056,4.056,0,0,0,2.19-1.306,4.28,4.28,0,0,0,.814-2.826Z" transform="translate(-98.425 -226.995)" fill="#ff2929"/>
          <path id="Path_1992" data-name="Path 1992" d="M281.055,227.578a6.981,6.981,0,0,1,3.926,1.17,8.466,8.466,0,0,1,2.828,3.133,9.546,9.546,0,0,1-.184,9.057,8.122,8.122,0,0,1-3.266,3.149l4.5,6.437h-8.574l-3.887-5.6h-7.191v5.6h-8.052V227.578Zm-11.847,6.71V238.2h9.819a1.622,1.622,0,0,0,1.252-.572,2.114,2.114,0,0,0,0-2.766,1.619,1.619,0,0,0-1.252-.572Z" transform="translate(-103.123 -226.998)" fill="#ff2929"/>
        </g>
      </g>
      <path id="Path_2000" data-name="Path 2000" d="M261.8,324.711h21.285v16.964" transform="translate(-81.435 -324.711)" fill="none" stroke="#fff" stroke-linecap="square" stroke-linejoin="round" stroke-width="9"/>
      <path id="Path_2001" data-name="Path 2001" d="M283.089,324.711H261.8v16.964" transform="translate(-261.804 -324.711)" fill="none" stroke="#fff" stroke-linecap="square" stroke-linejoin="round" stroke-width="9"/>
    </g>
    <path id="Intersection_1" data-name="Intersection 1" d="M50.489,28.545l-2.6-4.609q-1.429.138-2.934.137a26.588,26.588,0,0,1-5.478-.538,12.945,12.945,0,0,1-4.494-1.809,8.779,8.779,0,0,1-3.035-3.432,11.9,11.9,0,0,1-1.1-5.42V11.2a11.858,11.858,0,0,1,1.1-5.4,8.787,8.787,0,0,1,3.035-3.432,13.109,13.109,0,0,1,4.5-1.822,27.753,27.753,0,0,1,10.956,0,13.107,13.107,0,0,1,4.494,1.818A8.786,8.786,0,0,1,57.964,5.8a11.858,11.858,0,0,1,1.1,5.4v1.673a11.776,11.776,0,0,1-1.122,5.446,8.922,8.922,0,0,1-3.089,3.45l4.21,6.777ZM41.915,7.632a4.081,4.081,0,0,0-2.189,1.306,4.25,4.25,0,0,0-.822,2.825v.564a4.224,4.224,0,0,0,.822,2.809,4.141,4.141,0,0,0,2.189,1.315,13.392,13.392,0,0,0,6.077,0,4.1,4.1,0,0,0,2.189-1.315A4.241,4.241,0,0,0,51,12.327v-.564a4.267,4.267,0,0,0-.815-2.825A4.044,4.044,0,0,0,48,7.632a13.662,13.662,0,0,0-6.077,0ZM70.736,23.518a12.95,12.95,0,0,1-4.494-1.81,8.779,8.779,0,0,1-3.035-3.432,11.855,11.855,0,0,1-1.1-5.4V.546h8.052V12.309a4.256,4.256,0,0,0,.822,2.827,4.1,4.1,0,0,0,2.19,1.306,13.72,13.72,0,0,0,6.077,0,4.06,4.06,0,0,0,2.19-1.306,4.282,4.282,0,0,0,.813-2.827V.546h8.067V12.873a11.856,11.856,0,0,1-1.1,5.4A8.779,8.779,0,0,1,86.183,21.7a12.946,12.946,0,0,1-4.494,1.81,26.59,26.59,0,0,1-5.479.538,26.585,26.585,0,0,1-5.474-.535Zm43.126-.009-3.887-5.6h-7.191v5.6H94.731V.563h19.9a6.984,6.984,0,0,1,3.926,1.17,8.468,8.468,0,0,1,2.827,3.133,9.112,9.112,0,0,1,1.053,4.371,9.042,9.042,0,0,1-1.237,4.686,8.129,8.129,0,0,1-3.266,3.149l4.5,6.437ZM102.783,11.182H112.6a1.623,1.623,0,0,0,1.252-.571,1.982,1.982,0,0,0,.515-1.374,2,2,0,0,0-.515-1.392,1.619,1.619,0,0,0-1.252-.572h-9.819ZM18.218,23.492,0,.546H10.074L19.14,12.7V.546h8.066V23.492Z" transform="translate(142.071 319.594)" stroke="rgba(0,0,0,0)" stroke-miterlimit="10" stroke-width="1" fill="url(#linear-gradient)"/>
  </g>
</svg>
